<?xml version="1.0" encoding="utf-8"?>
<svg viewBox="5.936 11.59 488.861 330.14" xmlns="http://www.w3.org/2000/svg">
  <path d="M 424.134 209.64 C 432.905 200.041 439.257 185.971 439.257 172.262 C 439.257 142.098 417.292 121.726 386.824 121.726 C 356.356 121.726 335.901 142.522 335.901 172.686 C 335.901 186.398 340.895 200.233 349.665 209.828 C 331.383 221.961 322.307 235.185 312.981 251.012 C 306.979 244.614 294.986 234.906 287.139 230.793 C 295.912 221.194 302.797 207.251 302.797 193.542 C 302.797 163.377 279.982 140.137 249.515 140.137 C 219.046 140.137 197.961 163.258 197.568 193.645 C 197.391 207.356 203.59 220.659 212.361 230.255 C 204.514 234.827 192.64 244.092 186.641 250.49 C 179.718 234.952 163.977 218.495 149.668 210.267 C 158.441 200.668 165.057 187.141 165.057 173.432 C 165.057 143.268 142.154 118.695 111.685 118.695 C 81.217 118.695 58.277 143.268 58.277 173.432 C 58.277 187.144 64.086 200.045 72.858 209.64 C 48.391 223.807 31.042 249.756 31.042 279.917 L 31.669 311.377 C 31.669 315.947 35.258 318.964 39.872 318.964 L 168.908 317.362 L 168.727 332.293 C 168.727 336.863 170.636 338.082 175.252 338.082 L 322.375 338.284 C 326.993 338.284 327.73 335.383 327.73 330.816 L 330.274 318.858 L 458.184 317.051 C 462.803 317.051 464.347 313.806 464.347 309.238 L 465.433 279.81 C 466.813 249.646 452.062 226.901 427.596 212.734 L 424.134 209.64 Z M 46.589 304.246 L 166.149 304.246 L 46.589 304.246 Z" style="fill: rgba(156, 143, 191, 0.48);">
    <title>People Backdrop</title>
  </path>
  <g style="">
    <title>Final Small</title>
    <path d="M 429.44 209.353 C 454.059 223.752 470.781 250.227 469.391 280.884 L 469.391 313.399 C 469.391 318.041 465.678 321.758 461.031 321.758 L 331.901 321.758 L 331.901 333.371 C 331.901 338.013 328.188 341.73 323.541 341.73 L 174.437 341.73 C 169.793 341.73 166.077 338.016 166.077 333.371 L 166.077 321.758 L 36.945 321.758 C 32.303 321.758 28.586 318.044 28.586 313.399 L 28.586 280.884 C 28.586 250.23 45.308 223.752 69.927 209.353 C 61.101 199.601 55.991 186.595 55.991 172.659 C 55.991 160.358 60.029 148.954 66.846 139.708 L 56.38 129.241 L 50.694 134.928 C 48.715 136.659 46.491 137.648 44.017 137.648 C 41.543 137.648 39.072 136.659 37.34 134.928 C 33.632 131.219 33.632 125.283 37.34 121.576 L 43.027 115.888 L 24.728 97.59 L 24.728 112.675 C 24.728 117.868 20.526 122.07 15.332 122.07 C 10.14 122.07 5.936 117.868 5.936 112.675 L 5.936 75.088 C 5.936 69.897 10.14 65.692 15.332 65.692 L 52.916 65.691 C 58.109 65.691 62.313 69.893 62.313 75.087 C 62.313 80.281 58.109 84.485 52.916 84.485 L 37.831 84.485 L 56.13 102.783 L 61.818 97.096 C 65.526 93.386 71.46 93.386 75.168 97.096 C 78.878 100.804 78.878 106.739 75.168 110.446 L 69.483 116.134 L 80.147 126.798 C 89.139 120.574 100.028 116.92 111.73 116.92 C 142.388 116.92 167.47 142.002 167.47 172.659 C 167.47 186.592 162.36 199.597 153.533 209.353 C 167.932 217.716 180.012 230.722 186.978 246.514 C 193.014 240.011 199.984 234.438 207.88 229.792 C 199.053 220.039 193.943 207.034 193.943 193.098 C 193.943 162.44 219.025 137.359 249.683 137.359 C 280.34 137.359 305.422 162.44 305.422 193.098 C 305.422 207.031 300.313 220.036 291.486 229.792 C 299.382 233.972 306.348 240.011 312.388 246.514 C 319.353 231.184 330.966 218.179 345.832 209.353 C 337.007 199.601 331.895 186.595 331.895 172.659 C 331.895 142.002 356.977 116.92 387.635 116.92 C 399.521 116.92 410.57 120.69 419.643 127.094 L 462.163 83.513 L 446.968 83.516 C 441.733 83.516 437.499 79.281 437.499 74.048 C 437.499 68.817 441.733 64.581 446.968 64.581 L 484.831 64.581 C 490.063 64.581 494.297 68.817 494.797 74.048 L 494.797 111.913 C 494.797 117.145 490.562 121.38 485.33 121.38 C 480.097 121.38 475.863 117.145 475.863 111.913 L 475.863 96.716 L 432.669 139.911 C 439.395 149.121 443.374 160.448 443.374 172.659 C 443.374 186.592 438.265 199.597 429.439 209.353 L 429.44 209.353 Z M 348.617 172.656 C 348.617 194.488 366.267 211.674 387.635 211.674 C 409.466 211.674 426.652 194.488 426.652 172.656 C 426.652 150.825 409.004 133.639 387.635 133.639 C 366.267 133.639 348.614 150.825 348.617 172.656 Z M 211.126 192.628 C 211.126 214.459 228.311 231.645 250.143 231.645 C 271.975 231.645 289.16 214.459 289.16 192.628 C 289.16 170.797 271.512 153.611 250.143 153.611 C 228.774 153.611 211.126 170.8 211.126 192.628 Z M 73.634 172.192 C 73.634 193.557 90.823 211.674 112.651 211.674 C 134.483 211.674 151.668 194.488 151.668 172.656 C 151.668 150.825 134.02 133.639 112.651 133.639 C 91.285 133.639 73.634 150.824 73.634 172.192 Z M 46.228 305.503 L 166.533 305.503 L 166.533 301.323 C 166.533 287.854 170.25 274.849 175.823 263.699 C 170.713 244.655 157.244 228.862 139.592 220.966 C 131.696 225.611 122.407 228.398 112.187 228.398 C 102.434 228.398 92.68 225.611 84.783 220.966 C 62.021 231.181 46.229 254.406 46.229 280.884 L 46.229 305.039 L 46.228 305.503 Z M 316.102 300.856 C 316.102 274.382 300.31 251.156 277.548 240.938 C 272.23 244.068 266.278 246.353 259.836 247.512 L 259.838 274.675 L 272.294 274.675 C 277.525 274.675 281.761 278.91 281.761 284.141 C 281.761 289.374 277.525 293.609 272.294 293.609 L 259.838 293.609 L 259.838 308.556 C 259.838 313.789 255.604 318.023 250.372 318.023 C 245.14 318.023 240.905 313.789 240.905 308.556 L 240.905 293.609 L 228.45 293.609 C 223.216 293.609 218.982 289.374 218.982 284.141 C 218.982 278.91 223.216 274.675 228.45 274.675 L 240.905 274.675 L 240.905 247.556 C 234.379 246.411 228.126 244.108 222.739 240.938 C 199.978 251.153 184.186 274.379 184.186 300.856 L 184.186 325.011 L 316.104 325.011 L 316.102 300.856 Z M 453.598 305.038 L 453.595 280.42 C 453.595 253.945 437.803 231.183 415.042 220.501 C 407.146 225.148 397.855 227.934 387.637 227.934 C 377.884 227.934 368.128 225.148 360.232 220.501 C 342.579 228.398 329.112 244.19 324.001 263.235 C 330.037 274.848 333.29 287.39 333.29 300.859 L 333.29 305.039 L 454.06 305.039 L 453.598 305.038 Z" style="fill: rgb(109, 98, 143);">
      <title>People</title>
    </path>
    <path d="M 300.449 73.38 C 307.683 66.898 312.211 57.622 312.211 47.329 C 312.211 27.757 295.83 11.868 275.657 11.868 C 265.748 11.868 256.669 18.39 250.095 25.623 C 243.451 18.393 234.183 11.868 224.286 11.868 C 204.111 11.868 187.731 27.757 187.731 47.329 C 187.731 56.847 191.601 65.492 197.899 71.862 L 199.572 73.451 C 199.505 73.391 246.627 118.84 246.627 118.84 C 248.557 120.702 251.678 120.697 253.603 118.83 L 300.45 73.378 L 300.449 73.38 Z" fill-rule="evenodd" style="fill: rgb(109, 98, 143); visibility: hidden;">
      <title>Heart Full</title>
    </path>
  </g>
  <g style="">
    <title>Hearts</title>
    <path d="M 300.449 73.38 C 307.683 66.898 312.211 57.622 312.211 47.329 C 312.211 27.757 295.83 11.868 275.657 11.868 C 265.748 11.868 256.669 18.39 250.095 25.623 C 243.451 18.393 234.183 11.868 224.286 11.868 C 204.111 11.868 187.731 27.757 187.731 47.329 C 187.731 56.847 191.601 65.492 197.899 71.862 L 199.572 73.451 C 199.505 73.391 246.627 118.84 246.627 118.84 C 248.557 120.702 251.678 120.697 253.603 118.83 L 300.45 73.378 L 300.449 73.38 Z" fill-rule="evenodd" style="fill: rgba(156, 143, 191, 0.55);">
      <title>Heart Full</title>
    </path>
    <path d="M 301.149 73.49 C 308.473 66.968 313.057 57.633 313.057 47.274 C 313.057 27.579 296.474 11.59 276.049 11.59 C 266.017 11.59 256.826 18.155 250.171 25.431 C 243.445 18.157 234.062 11.59 224.041 11.59 C 203.617 11.59 187.033 27.579 187.033 47.274 C 187.033 56.853 190.952 65.552 197.326 71.962 L 199.021 73.561 C 198.953 73.499 246.66 119.235 246.66 119.235 C 248.614 121.109 251.773 121.104 253.722 119.225 L 301.15 73.488 L 301.149 73.49 Z M 294.301 66.46 C 294.247 66.506 294.197 66.555 294.146 66.604 L 250.174 109.004 L 205.934 66.592 L 204.544 65.285 C 199.894 60.609 197.034 54.261 197.034 47.274 C 197.034 32.903 209.135 21.233 224.041 21.233 C 233.2 21.233 241.152 29.29 246.126 35.962 C 247.065 37.223 248.576 37.97 250.187 37.968 C 251.796 37.968 253.307 37.221 254.248 35.959 C 259.211 29.295 266.901 21.232 276.05 21.232 C 290.954 21.232 303.057 32.902 303.057 47.273 C 303.057 54.861 299.683 61.696 294.302 66.458 L 294.301 66.46 Z" fill-rule="evenodd" style="fill: rgb(109, 98, 143);">
      <title>Heart Open</title>
    </path>
  </g>
</svg>