<?xml version="1.0" encoding="utf-8"?>
<svg viewBox="6.422 11.247 488.861 330.267" xmlns="http://www.w3.org/2000/svg">
  <path d="M 424.134 209.64 C 432.905 200.041 439.257 185.971 439.257 172.262 C 439.257 142.098 417.292 121.726 386.824 121.726 C 356.356 121.726 335.901 142.522 335.901 172.686 C 335.901 186.398 340.895 200.233 349.665 209.828 C 331.383 221.961 322.307 235.185 312.981 251.012 C 306.979 244.614 294.986 234.906 287.139 230.793 C 295.912 221.194 302.797 207.251 302.797 193.542 C 302.797 163.377 279.982 140.137 249.515 140.137 C 219.046 140.137 197.961 163.258 197.568 193.645 C 197.391 207.356 203.59 220.659 212.361 230.255 C 204.514 234.827 192.64 244.092 186.641 250.49 C 179.718 234.952 163.977 218.495 149.668 210.267 C 158.441 200.668 165.057 187.141 165.057 173.432 C 165.057 143.268 142.154 118.695 111.685 118.695 C 81.217 118.695 58.277 143.268 58.277 173.432 C 58.277 187.144 64.086 200.045 72.858 209.64 C 48.391 223.807 31.042 249.756 31.042 279.917 L 31.669 311.377 C 31.669 315.947 35.258 318.964 39.872 318.964 L 168.908 317.362 L 168.727 332.293 C 168.727 336.863 170.636 338.082 175.252 338.082 L 322.375 338.284 C 326.993 338.284 327.73 335.383 327.73 330.816 L 330.274 318.858 L 458.184 317.051 C 462.803 317.051 464.347 313.806 464.347 309.238 L 465.433 279.81 C 466.813 249.646 452.062 226.901 427.596 212.734 L 424.134 209.64 Z M 46.589 304.246 L 166.149 304.246 L 46.589 304.246 Z" style="fill: rgba(156, 143, 191, 0.48);">
    <title>People Backdrop</title>
  </path>
  <path d="M 251.498 51.273 C 246.181 48.443 238.771 44.729 231.789 41.997 C 224.584 39.178 217.578 37.52 212.68 37.52 C 194.421 37.52 179.601 48.903 179.601 62.926 C 179.601 76.945 194.423 88.329 212.68 88.329 C 217.578 88.329 224.584 86.671 231.789 83.853 C 238.771 81.12 246.181 77.407 251.498 74.576 C 256.811 77.405 264.222 81.12 271.204 83.853 C 278.409 86.671 285.416 88.329 290.316 88.329 C 308.572 88.329 323.395 76.945 323.395 62.926 C 323.395 48.903 308.572 37.52 290.316 37.52 C 285.416 37.52 278.409 39.178 271.204 41.997 C 264.223 44.729 256.815 48.441 251.498 51.273 Z M 229.853 62.923 C 226.873 61.484 223.693 60.052 220.61 58.845 C 217.535 57.641 214.77 56.43 212.68 56.43 C 208.01 56.43 204.22 59.34 204.22 62.926 C 204.22 66.511 208.011 69.42 212.68 69.42 C 214.771 69.42 217.535 68.209 220.61 67.006 C 223.696 65.799 226.873 64.366 229.853 62.923 Z M 273.141 62.926 C 276.119 64.366 279.3 65.798 282.384 67.005 C 285.459 68.208 288.222 69.42 290.314 69.42 C 294.983 69.42 298.772 66.51 298.772 62.924 C 298.772 59.339 294.982 56.429 290.314 56.429 C 288.222 56.429 285.459 57.64 282.384 58.844 C 279.297 60.051 276.119 61.484 273.141 62.926 Z" fill-rule="evenodd" style="stroke: rgb(109, 98, 143); stroke-width: 0px; fill: rgba(156, 143, 191, 0.49);">
    <title>Infinity Backdrop</title>
  </path>
  <g transform="matrix(1, 0, 0, 1, 1.070254, -16.489853)" style="">
    <title>Final Large</title>
    <path d="M 253.334 134.836 C 251.402 136.707 248.27 136.711 246.333 134.847 C 246.333 134.847 228.41 117.603 214.646 104.359 C 219.114 103.782 224.538 102.337 230.078 100.24 C 237.17 97.555 244.692 93.906 250.092 91.124 C 255.488 93.904 263.013 97.555 270.105 100.24 C 275.389 102.241 280.569 103.646 284.912 104.273 L 253.334 134.836 Z M 223.908 27.737 C 233.843 27.737 243.146 34.271 249.814 41.51 C 256.412 34.268 265.524 27.737 275.47 27.737 C 295.011 27.737 311.007 42.554 312.102 61.204 C 306.133 57.169 298.206 54.707 289.511 54.707 C 284.534 54.707 277.42 56.337 270.105 59.107 C 263.015 61.793 255.491 65.44 250.092 68.223 C 244.692 65.442 237.17 61.793 230.078 59.107 C 222.763 56.337 215.647 54.707 210.672 54.707 C 201.566 54.707 193.3 57.407 187.248 61.787 C 188.038 42.866 204.162 27.737 223.908 27.737 Z M 257.427 71.93 C 262.071 69.555 268.914 66.306 274.197 64.239 C 280.18 61.899 285.927 60.347 289.996 60.347 C 304.083 60.347 315.519 69.129 315.519 79.949 C 315.519 90.766 304.083 99.549 289.996 99.549 C 285.926 99.549 280.18 97.997 274.197 95.656 C 266.242 92.543 257.734 88.123 252.519 85.28 L 238.054 77.291 C 238.019 77.272 237.986 77.253 237.952 77.236 C 233.31 74.829 227.578 72.052 222.122 69.916 C 217.531 68.118 213.213 66.717 210.089 66.717 C 200.58 66.717 192.861 72.646 192.861 79.949 C 192.861 87.251 200.58 93.179 210.089 93.179 C 213.212 93.179 217.531 91.777 222.122 89.98 C 226.161 88.4 231.571 85.907 235.355 84.035 L 242.659 87.966 C 238.013 90.343 231.172 93.59 225.888 95.658 C 219.907 97.997 214.157 99.55 210.089 99.55 C 196.003 99.55 184.565 90.767 184.565 79.95 C 184.565 69.13 196.003 60.348 210.089 60.348 C 214.159 60.348 219.907 61.899 225.888 64.24 C 233.729 67.309 242.109 71.65 247.342 74.497 L 262.093 82.639 C 262.128 82.659 262.162 82.676 262.196 82.694 C 266.825 85.092 272.531 87.855 277.961 89.98 C 282.553 91.778 286.871 93.179 289.994 93.179 C 299.503 93.179 307.223 87.251 307.223 79.949 C 307.223 72.646 299.504 66.717 289.994 66.717 C 286.872 66.717 282.553 68.12 277.961 69.916 C 273.923 71.495 268.514 73.989 264.728 75.862 L 257.427 71.93 Z" fill-rule="evenodd" style="fill: rgb(109, 98, 143);">
      <title>Heart</title>
    </path>
    <path d="M 428.856 225.627 C 453.475 240.026 470.197 266.501 468.807 297.158 L 468.807 329.673 C 468.807 334.315 465.094 338.032 460.447 338.032 L 331.317 338.032 L 331.317 349.645 C 331.317 354.287 327.604 358.004 322.957 358.004 L 173.853 358.004 C 169.209 358.004 165.493 354.29 165.493 349.645 L 165.493 338.032 L 36.361 338.032 C 31.719 338.032 28.002 334.318 28.002 329.673 L 28.002 297.158 C 28.002 266.504 44.724 240.026 69.343 225.627 C 60.517 215.875 55.407 202.869 55.407 188.933 C 55.407 176.632 59.445 165.228 66.262 155.982 L 55.796 145.515 L 50.11 151.202 C 48.131 152.933 45.907 153.922 43.433 153.922 C 40.959 153.922 38.488 152.933 36.756 151.202 C 33.048 147.493 33.048 141.557 36.756 137.85 L 42.443 132.162 L 24.144 113.864 L 24.144 128.949 C 24.144 134.142 19.942 138.344 14.748 138.344 C 9.556 138.344 5.352 134.142 5.352 128.949 L 5.352 91.362 C 5.352 86.171 9.556 81.966 14.748 81.966 L 52.332 81.965 C 57.525 81.965 61.729 86.167 61.729 91.361 C 61.729 96.555 57.525 100.759 52.332 100.759 L 37.247 100.759 L 55.546 119.057 L 61.234 113.37 C 64.942 109.66 70.876 109.66 74.584 113.37 C 78.294 117.078 78.294 123.013 74.584 126.72 L 68.899 132.408 L 79.563 143.072 C 88.555 136.848 99.444 133.194 111.146 133.194 C 141.804 133.194 166.886 158.276 166.886 188.933 C 166.886 202.866 161.776 215.871 152.949 225.627 C 167.348 233.99 179.428 246.996 186.394 262.788 C 192.43 256.285 199.4 250.712 207.296 246.066 C 198.469 236.313 193.359 223.308 193.359 209.372 C 193.359 178.714 218.441 153.633 249.099 153.633 C 279.756 153.633 304.838 178.714 304.838 209.372 C 304.838 223.305 299.729 236.31 290.902 246.066 C 298.798 250.246 305.764 256.285 311.804 262.788 C 318.769 247.458 330.382 234.453 345.248 225.627 C 336.423 215.875 331.311 202.869 331.311 188.933 C 331.311 158.276 356.393 133.194 387.051 133.194 C 398.937 133.194 409.986 136.964 419.059 143.368 L 461.579 99.787 L 446.384 99.79 C 441.149 99.79 436.915 95.555 436.915 90.322 C 436.915 85.091 441.149 80.855 446.384 80.855 L 484.247 80.855 C 489.479 80.855 493.713 85.091 494.213 90.322 L 494.213 128.187 C 494.213 133.419 489.978 137.654 484.746 137.654 C 479.513 137.654 475.279 133.419 475.279 128.187 L 475.279 112.99 L 432.085 156.185 C 438.811 165.395 442.79 176.722 442.79 188.933 C 442.79 202.866 437.681 215.871 428.855 225.627 L 428.856 225.627 Z M 348.033 188.93 C 348.033 210.762 365.683 227.948 387.051 227.948 C 408.882 227.948 426.068 210.762 426.068 188.93 C 426.068 167.099 408.42 149.913 387.051 149.913 C 365.683 149.913 348.03 167.099 348.033 188.93 Z M 210.542 208.902 C 210.542 230.733 227.727 247.919 249.559 247.919 C 271.391 247.919 288.576 230.733 288.576 208.902 C 288.576 187.071 270.928 169.885 249.559 169.885 C 228.19 169.885 210.542 187.074 210.542 208.902 Z M 73.05 188.466 C 73.05 209.831 90.239 227.948 112.067 227.948 C 133.899 227.948 151.084 210.762 151.084 188.93 C 151.084 167.099 133.436 149.913 112.067 149.913 C 90.701 149.913 73.05 167.098 73.05 188.466 Z M 45.644 321.777 L 165.949 321.777 L 165.949 317.597 C 165.949 304.128 169.666 291.123 175.239 279.973 C 170.129 260.929 156.66 245.136 139.008 237.24 C 131.112 241.885 121.823 244.672 111.603 244.672 C 101.85 244.672 92.096 241.885 84.199 237.24 C 61.437 247.455 45.645 270.68 45.645 297.158 L 45.645 321.313 L 45.644 321.777 Z M 315.518 317.13 C 315.518 290.656 299.726 267.43 276.964 257.212 C 271.646 260.342 265.694 262.627 259.252 263.786 L 259.254 290.949 L 271.71 290.949 C 276.941 290.949 281.177 295.184 281.177 300.415 C 281.177 305.648 276.941 309.883 271.71 309.883 L 259.254 309.883 L 259.254 324.83 C 259.254 330.063 255.02 334.297 249.788 334.297 C 244.556 334.297 240.321 330.063 240.321 324.83 L 240.321 309.883 L 227.866 309.883 C 222.632 309.883 218.398 305.648 218.398 300.415 C 218.398 295.184 222.632 290.949 227.866 290.949 L 240.321 290.949 L 240.321 263.83 C 233.795 262.685 227.542 260.382 222.155 257.212 C 199.394 267.427 183.602 290.653 183.602 317.13 L 183.602 341.285 L 315.52 341.285 L 315.518 317.13 Z M 453.014 321.312 L 453.011 296.694 C 453.011 270.219 437.219 247.457 414.458 236.775 C 406.562 241.422 397.271 244.208 387.053 244.208 C 377.3 244.208 367.544 241.422 359.648 236.775 C 341.995 244.672 328.528 260.464 323.417 279.509 C 329.453 291.122 332.706 303.664 332.706 317.133 L 332.706 321.313 L 453.476 321.313 L 453.014 321.312 Z" style="fill: rgb(109, 98, 143);">
      <title>People</title>
    </path>
  </g>
</svg>