<?xml version="1.0" encoding="utf-8"?>
<svg viewBox="22.92 24.662 695.602 162.073" xmlns="http://www.w3.org/2000/svg">
  <defs>
    <linearGradient id="gradient-0" x1="348.902" x2="348.902" y1="309.878" y2="395.73" gradientUnits="userSpaceOnUse" spreadMethod="pad" gradientTransform="matrix(0.190385, -0.981709, 4.129443, 0.800833, -1166.997135, 418.770883)">
      <stop offset="0" style="stop-color: rgb(109, 98, 143);"/>
      <stop offset="1" style="stop-color: rgb(177, 167, 205);"/>
    </linearGradient>
  </defs>
  <g transform="matrix(0.856889, 0, 0, 0.856889, -22.898088, -118.323166)" style="">
    <path d="M 824.5 280.483 C 829.524 274.986 833.161 266.928 833.161 259.077 C 833.161 241.802 820.582 230.135 803.133 230.135 C 785.685 230.135 773.97 242.045 773.97 259.32 C 773.97 267.173 776.83 275.096 781.853 280.591 C 771.383 287.539 766.185 295.112 760.844 304.176 C 757.407 300.512 750.538 294.953 746.045 292.597 C 751.069 287.1 755.012 279.115 755.012 271.264 C 755.012 253.989 741.946 240.679 724.498 240.679 C 707.048 240.679 694.973 253.92 694.748 271.323 C 694.647 279.175 698.197 286.794 703.22 292.289 C 698.726 294.907 691.926 300.213 688.49 303.877 C 684.526 294.979 675.511 285.554 667.316 280.842 C 672.34 275.345 676.129 267.598 676.129 259.747 C 676.129 242.472 663.013 228.4 645.564 228.4 C 628.115 228.4 614.977 242.472 614.977 259.747 C 614.977 267.6 618.304 274.988 623.328 280.483 C 609.316 288.596 599.38 303.457 599.38 320.73 L 599.739 338.747 C 599.739 341.364 601.794 343.092 604.437 343.092 L 678.335 342.175 L 678.231 350.725 C 678.231 353.343 679.324 354.041 681.968 354.041 L 766.224 354.156 C 768.869 354.156 769.291 352.495 769.291 349.88 L 770.748 343.031 L 844.001 341.996 C 846.646 341.996 847.53 340.138 847.53 337.522 L 848.152 320.669 C 848.942 303.394 840.495 290.368 826.483 282.255 L 824.5 280.483 Z M 608.284 334.663 L 676.755 334.663 L 608.284 334.663 Z" style="fill: rgba(156, 143, 191, 0.48);">
      <title>People Backdrop</title>
    </path>
    <path d="M 725.633 189.788 C 722.588 188.167 718.345 186.04 714.346 184.475 C 710.22 182.861 706.208 181.911 703.403 181.911 C 692.946 181.911 684.458 188.43 684.458 196.461 C 684.458 204.49 692.947 211.009 703.403 211.009 C 706.208 211.009 710.22 210.06 714.346 208.446 C 718.345 206.881 722.588 204.754 725.633 203.133 C 728.676 204.753 732.92 206.881 736.919 208.446 C 741.045 210.06 745.058 211.009 747.864 211.009 C 758.319 211.009 766.808 204.49 766.808 196.461 C 766.808 188.43 758.319 181.911 747.864 181.911 C 745.058 181.911 741.045 182.861 736.919 184.475 C 732.921 186.04 728.678 188.166 725.633 189.788 Z M 713.237 196.459 C 711.531 195.635 709.71 194.815 707.944 194.124 C 706.183 193.435 704.599 192.741 703.403 192.741 C 700.728 192.741 698.558 194.408 698.558 196.461 C 698.558 198.514 700.729 200.18 703.403 200.18 C 704.6 200.18 706.183 199.487 707.944 198.798 C 709.711 198.107 711.531 197.286 713.237 196.459 Z M 738.028 196.461 C 739.734 197.286 741.555 198.106 743.321 198.797 C 745.082 199.486 746.665 200.18 747.863 200.18 C 750.537 200.18 752.707 198.514 752.707 196.46 C 752.707 194.407 750.536 192.74 747.863 192.74 C 746.665 192.74 745.082 193.434 743.321 194.123 C 741.554 194.815 739.734 195.635 738.028 196.461 Z" fill-rule="evenodd" style="stroke: rgb(109, 98, 143); stroke-width: 0px; fill: rgba(156, 143, 191, 0.49);">
      <title>Infinity Backdrop</title>
    </path>
    <g transform="matrix(0.572691, 0, 0, 0.572691, 582.21521, 150.980576)" style="">
      <title>Final Large</title>
      <path d="M 253.334 134.836 C 251.402 136.707 248.27 136.711 246.333 134.847 C 246.333 134.847 228.41 117.603 214.646 104.359 C 219.114 103.782 224.538 102.337 230.078 100.24 C 237.17 97.555 244.692 93.906 250.092 91.124 C 255.488 93.904 263.013 97.555 270.105 100.24 C 275.389 102.241 280.569 103.646 284.912 104.273 L 253.334 134.836 Z M 223.908 27.737 C 233.843 27.737 243.146 34.271 249.814 41.51 C 256.412 34.268 265.524 27.737 275.47 27.737 C 295.011 27.737 311.007 42.554 312.102 61.204 C 306.133 57.169 298.206 54.707 289.511 54.707 C 284.534 54.707 277.42 56.337 270.105 59.107 C 263.015 61.793 255.491 65.44 250.092 68.223 C 244.692 65.442 237.17 61.793 230.078 59.107 C 222.763 56.337 215.647 54.707 210.672 54.707 C 201.566 54.707 193.3 57.407 187.248 61.787 C 188.038 42.866 204.162 27.737 223.908 27.737 Z M 257.427 71.93 C 262.071 69.555 268.914 66.306 274.197 64.239 C 280.18 61.899 285.927 60.347 289.996 60.347 C 304.083 60.347 315.519 69.129 315.519 79.949 C 315.519 90.766 304.083 99.549 289.996 99.549 C 285.926 99.549 280.18 97.997 274.197 95.656 C 266.242 92.543 257.734 88.123 252.519 85.28 L 238.054 77.291 C 238.019 77.272 237.986 77.253 237.952 77.236 C 233.31 74.829 227.578 72.052 222.122 69.916 C 217.531 68.118 213.213 66.717 210.089 66.717 C 200.58 66.717 192.861 72.646 192.861 79.949 C 192.861 87.251 200.58 93.179 210.089 93.179 C 213.212 93.179 217.531 91.777 222.122 89.98 C 226.161 88.4 231.571 85.907 235.355 84.035 L 242.659 87.966 C 238.013 90.343 231.172 93.59 225.888 95.658 C 219.907 97.997 214.157 99.55 210.089 99.55 C 196.003 99.55 184.565 90.767 184.565 79.95 C 184.565 69.13 196.003 60.348 210.089 60.348 C 214.159 60.348 219.907 61.899 225.888 64.24 C 233.729 67.309 242.109 71.65 247.342 74.497 L 262.093 82.639 C 262.128 82.659 262.162 82.676 262.196 82.694 C 266.825 85.092 272.531 87.855 277.961 89.98 C 282.553 91.778 286.871 93.179 289.994 93.179 C 299.503 93.179 307.223 87.251 307.223 79.949 C 307.223 72.646 299.504 66.717 289.994 66.717 C 286.872 66.717 282.553 68.12 277.961 69.916 C 273.923 71.495 268.514 73.989 264.728 75.862 L 257.427 71.93 Z" fill-rule="evenodd" style="fill: rgb(109, 98, 143);">
        <title>Heart</title>
      </path>
      <path d="M 428.856 225.627 C 453.475 240.026 470.197 266.501 468.807 297.158 L 468.807 329.673 C 468.807 334.315 465.094 338.032 460.447 338.032 L 331.317 338.032 L 331.317 349.645 C 331.317 354.287 327.604 358.004 322.957 358.004 L 173.853 358.004 C 169.209 358.004 165.493 354.29 165.493 349.645 L 165.493 338.032 L 36.361 338.032 C 31.719 338.032 28.002 334.318 28.002 329.673 L 28.002 297.158 C 28.002 266.504 44.724 240.026 69.343 225.627 C 60.517 215.875 55.407 202.869 55.407 188.933 C 55.407 176.632 59.445 165.228 66.262 155.982 L 55.796 145.515 L 50.11 151.202 C 48.131 152.933 45.907 153.922 43.433 153.922 C 40.959 153.922 38.488 152.933 36.756 151.202 C 33.048 147.493 33.048 141.557 36.756 137.85 L 42.443 132.162 L 24.144 113.864 L 24.144 128.949 C 24.144 134.142 19.942 138.344 14.748 138.344 C 9.556 138.344 5.352 134.142 5.352 128.949 L 5.352 91.362 C 5.352 86.171 9.556 81.966 14.748 81.966 L 52.332 81.965 C 57.525 81.965 61.729 86.167 61.729 91.361 C 61.729 96.555 57.525 100.759 52.332 100.759 L 37.247 100.759 L 55.546 119.057 L 61.234 113.37 C 64.942 109.66 70.876 109.66 74.584 113.37 C 78.294 117.078 78.294 123.013 74.584 126.72 L 68.899 132.408 L 79.563 143.072 C 88.555 136.848 99.444 133.194 111.146 133.194 C 141.804 133.194 166.886 158.276 166.886 188.933 C 166.886 202.866 161.776 215.871 152.949 225.627 C 167.348 233.99 179.428 246.996 186.394 262.788 C 192.43 256.285 199.4 250.712 207.296 246.066 C 198.469 236.313 193.359 223.308 193.359 209.372 C 193.359 178.714 218.441 153.633 249.099 153.633 C 279.756 153.633 304.838 178.714 304.838 209.372 C 304.838 223.305 299.729 236.31 290.902 246.066 C 298.798 250.246 305.764 256.285 311.804 262.788 C 318.769 247.458 330.382 234.453 345.248 225.627 C 336.423 215.875 331.311 202.869 331.311 188.933 C 331.311 158.276 356.393 133.194 387.051 133.194 C 398.937 133.194 409.986 136.964 419.059 143.368 L 461.579 99.787 L 446.384 99.79 C 441.149 99.79 436.915 95.555 436.915 90.322 C 436.915 85.091 441.149 80.855 446.384 80.855 L 484.247 80.855 C 489.479 80.855 493.713 85.091 494.213 90.322 L 494.213 128.187 C 494.213 133.419 489.978 137.654 484.746 137.654 C 479.513 137.654 475.279 133.419 475.279 128.187 L 475.279 112.99 L 432.085 156.185 C 438.811 165.395 442.79 176.722 442.79 188.933 C 442.79 202.866 437.681 215.871 428.855 225.627 L 428.856 225.627 Z M 348.033 188.93 C 348.033 210.762 365.683 227.948 387.051 227.948 C 408.882 227.948 426.068 210.762 426.068 188.93 C 426.068 167.099 408.42 149.913 387.051 149.913 C 365.683 149.913 348.03 167.099 348.033 188.93 Z M 210.542 208.902 C 210.542 230.733 227.727 247.919 249.559 247.919 C 271.391 247.919 288.576 230.733 288.576 208.902 C 288.576 187.071 270.928 169.885 249.559 169.885 C 228.19 169.885 210.542 187.074 210.542 208.902 Z M 73.05 188.466 C 73.05 209.831 90.239 227.948 112.067 227.948 C 133.899 227.948 151.084 210.762 151.084 188.93 C 151.084 167.099 133.436 149.913 112.067 149.913 C 90.701 149.913 73.05 167.098 73.05 188.466 Z M 45.644 321.777 L 165.949 321.777 L 165.949 317.597 C 165.949 304.128 169.666 291.123 175.239 279.973 C 170.129 260.929 156.66 245.136 139.008 237.24 C 131.112 241.885 121.823 244.672 111.603 244.672 C 101.85 244.672 92.096 241.885 84.199 237.24 C 61.437 247.455 45.645 270.68 45.645 297.158 L 45.645 321.313 L 45.644 321.777 Z M 315.518 317.13 C 315.518 290.656 299.726 267.43 276.964 257.212 C 271.646 260.342 265.694 262.627 259.252 263.786 L 259.254 290.949 L 271.71 290.949 C 276.941 290.949 281.177 295.184 281.177 300.415 C 281.177 305.648 276.941 309.883 271.71 309.883 L 259.254 309.883 L 259.254 324.83 C 259.254 330.063 255.02 334.297 249.788 334.297 C 244.556 334.297 240.321 330.063 240.321 324.83 L 240.321 309.883 L 227.866 309.883 C 222.632 309.883 218.398 305.648 218.398 300.415 C 218.398 295.184 222.632 290.949 227.866 290.949 L 240.321 290.949 L 240.321 263.83 C 233.795 262.685 227.542 260.382 222.155 257.212 C 199.394 267.427 183.602 290.653 183.602 317.13 L 183.602 341.285 L 315.52 341.285 L 315.518 317.13 Z M 453.014 321.312 L 453.011 296.694 C 453.011 270.219 437.219 247.457 414.458 236.775 C 406.562 241.422 397.271 244.208 387.053 244.208 C 377.3 244.208 367.544 241.422 359.648 236.775 C 341.995 244.672 328.528 260.464 323.417 279.509 C 329.453 291.122 332.706 303.664 332.706 317.133 L 332.706 321.313 L 453.476 321.313 L 453.014 321.312 Z" style="fill: rgb(109, 98, 143);">
        <title>People</title>
      </path>
    </g>
  </g>
  <g style="line-height:1;font-variant-ligatures:none;text-align:center" font-weight="300" font-size="32" font-family="Comfortaa" text-anchor="middle" fill="#5b637a" transform="matrix(1, 0, 0, 1, -108.799591, -274.147064)">
    <path style="line-height: 1; font-variant-ligatures: none; text-align: center; fill: rgb(109, 98, 143);" d="M151.528 457.266q-.642 0-1.123-.427-.48-.481-.48-1.176v-38.53q0-.695.48-1.122.481-.481 1.123-.481.694 0 1.122.48.48.428.48 1.123v37.248h21.965q.694 0 1.122.427.48.374.48 1.016 0 .64-.48 1.068-.428.374-1.122.374zM196.254 457.587q-4.221 0-7.641-1.924-3.42-1.977-5.398-5.397-1.924-3.42-1.924-7.589 0-4.221 1.924-7.642 1.977-3.42 5.398-5.344 3.42-1.977 7.641-1.977 4.169 0 7.589 1.977 3.42 1.924 5.344 5.344 1.977 3.42 1.977 7.642 0 4.169-1.977 7.589-1.924 3.42-5.344 5.397-3.42 1.924-7.589 1.924zm0-2.993q3.314 0 5.986-1.55 2.672-1.549 4.168-4.274 1.55-2.726 1.55-6.093 0-3.366-1.55-6.092-1.496-2.725-4.168-4.275-2.672-1.603-5.986-1.603-3.313 0-5.985 1.603-2.672 1.55-4.222 4.275-1.55 2.726-1.55 6.092 0 3.367 1.55 6.093 1.55 2.725 4.222 4.275 2.672 1.55 5.985 1.55zM240.63 428.088q.909.428.909 1.39 0 .374-.107.588l-12.024 26.132q-.534 1.122-1.71 1.122-.48 0-.908-.267-.374-.32-.588-.855l-12.185-26.079q-.106-.214-.106-.588 0-.962.908-1.39.32-.16.641-.16.909 0 1.336.909l10.956 23.727 10.794-23.78q.428-.91 1.39-.91.374 0 .695.161zM258.485 427.768q3.901 0 6.948 1.87 3.1 1.817 4.81 5.077 1.71 3.26 1.71 7.428 0 .695-.428 1.122-.428.374-1.123.374h-22.39q.16 3.153 1.656 5.665 1.496 2.458 4.008 3.848 2.511 1.389 5.611 1.389 2.084 0 4.168-.695 2.138-.748 3.367-1.924.534-.427 1.122-.427.588 0 .962.32.588.482.588 1.123 0 .534-.481 1.015-1.71 1.55-4.489 2.565-2.725 1.016-5.237 1.016-4.222 0-7.535-1.87-3.26-1.925-5.13-5.291-1.87-3.42-1.87-7.696 0-4.328 1.71-7.695 1.763-3.42 4.862-5.29 3.153-1.924 7.161-1.924zm0 2.992q-4.168 0-7.054 2.78-2.832 2.778-3.366 7.32h20.788q-.374-4.542-3.207-7.32-2.832-2.78-7.16-2.78zM311.142 458.122q-4.65 0-8.337-1.817-3.633-1.87-5.664-5.13-2.03-3.314-2.03-7.536v-26.506q0-.748.427-1.176.48-.427 1.175-.427.748 0 1.176.427.428.428.428 1.176v26.506q0 3.26 1.603 5.825 1.656 2.565 4.542 4.008 2.94 1.443 6.68 1.443 3.74 0 6.627-1.443 2.939-1.443 4.596-4.008 1.656-2.565 1.656-5.825v-26.506q0-.748.428-1.176.48-.427 1.175-.427.749 0 1.176.427.428.428.428 1.176v26.506q0 4.222-2.085 7.535-2.03 3.26-5.718 5.13-3.634 1.818-8.283 1.818zM350.73 427.66q3.9 0 6.947 1.604 3.1 1.603 4.81 4.703 1.763 3.046 1.763 7.32v14.376q0 .695-.481 1.176-.428.427-1.122.427-.695 0-1.176-.427-.428-.481-.428-1.176v-14.375q0-5.077-2.885-7.749-2.833-2.672-7.429-2.672-2.832 0-5.183 1.122-2.298 1.07-3.634 3.046-1.336 1.924-1.336 4.276v16.352q0 .695-.428 1.176-.427.427-1.175.427-.695 0-1.176-.427-.428-.481-.428-1.176v-26.025q0-.748.428-1.176.481-.427 1.176-.427.748 0 1.175.427.428.428.428 1.176v2.779q1.817-2.245 4.435-3.474 2.619-1.282 5.718-1.282zM388.289 427.714q4.221 0 7.642 1.977 3.42 1.924 5.344 5.344 1.977 3.42 1.977 7.589 0 4.222-1.977 7.642-1.924 3.42-5.344 5.397-3.42 1.924-7.642 1.924-4.115 0-7.535-1.87-3.367-1.924-5.344-5.29-1.978-3.368-2.031-7.482V417.133q0-.748.427-1.176.481-.427 1.176-.427.748 0 1.176.427.427.428.427 1.176v16.673q1.764-2.832 4.81-4.435 3.1-1.657 6.894-1.657zm0 26.88q3.313 0 5.985-1.55 2.672-1.602 4.222-4.328 1.55-2.725 1.55-6.092 0-3.367-1.55-6.092-1.55-2.726-4.222-4.275-2.672-1.55-5.985-1.55-3.314 0-5.986 1.55-2.672 1.55-4.221 4.275-1.497 2.725-1.497 6.092 0 3.367 1.497 6.092 1.55 2.726 4.221 4.329 2.672 1.55 5.986 1.55zM424.627 457.587q-4.222 0-7.642-1.924-3.42-1.977-5.397-5.397-1.924-3.42-1.924-7.589 0-4.221 1.924-7.642 1.977-3.42 5.397-5.344 3.42-1.977 7.642-1.977 4.168 0 7.588 1.977 3.42 1.924 5.344 5.344 1.978 3.42 1.978 7.642 0 4.169-1.978 7.589-1.923 3.42-5.344 5.397-3.42 1.924-7.588 1.924zm0-2.993q3.313 0 5.985-1.55 2.672-1.549 4.169-4.274 1.55-2.726 1.55-6.093 0-3.366-1.55-6.092-1.497-2.725-4.169-4.275-2.672-1.603-5.985-1.603t-5.985 1.603q-2.672 1.55-4.222 4.275-1.55 2.726-1.55 6.092 0 3.367 1.55 6.093 1.55 2.725 4.222 4.275 2.672 1.55 5.985 1.55zM472.332 428.035q.748 0 1.176.427.427.428.427 1.176v26.025q0 .695-.427 1.176-.428.427-1.176.427-.695 0-1.175-.427-.428-.481-.428-1.176v-2.779q-1.817 2.245-4.436 3.527-2.618 1.23-5.718 1.23-3.9 0-7-1.604-3.046-1.603-4.81-4.649-1.71-3.1-1.71-7.375v-14.375q0-.695.428-1.122.48-.481 1.175-.481.695 0 1.123.48.48.428.48 1.123v14.375q0 5.077 2.833 7.75 2.886 2.671 7.481 2.671 2.833 0 5.13-1.069 2.352-1.122 3.688-3.046 1.336-1.977 1.336-4.328v-16.353q0-.748.428-1.176.48-.427 1.175-.427zM496.959 427.66q3.901 0 6.947 1.604 3.1 1.603 4.81 4.703 1.763 3.046 1.763 7.32v14.376q0 .695-.48 1.176-.428.427-1.123.427-.695 0-1.176-.427-.427-.481-.427-1.176v-14.375q0-5.077-2.886-7.749-2.832-2.672-7.428-2.672-2.832 0-5.184 1.122-2.298 1.07-3.634 3.046-1.336 1.924-1.336 4.276v16.352q0 .695-.427 1.176-.428.427-1.176.427-.695 0-1.176-.427-.427-.481-.427-1.176v-26.025q0-.748.427-1.176.481-.427 1.176-.427.748 0 1.176.427.427.428.427 1.176v2.779q1.817-2.245 4.436-3.474 2.618-1.282 5.718-1.282zM546.275 415.53q.748 0 1.175.427.428.428.428 1.176V442.945q-.053 4.114-2.03 7.481-1.978 3.367-5.398 5.29-3.367 1.871-7.482 1.871-4.222 0-7.642-1.924-3.42-1.977-5.397-5.397-1.924-3.42-1.924-7.642 0-4.168 1.924-7.589 1.977-3.42 5.397-5.344 3.42-1.977 7.642-1.977 3.794 0 6.84 1.657 3.1 1.603 4.864 4.435v-16.673q0-.748.427-1.176.481-.427 1.176-.427zm-13.307 39.064q3.314 0 5.986-1.55 2.672-1.602 4.168-4.328 1.55-2.725 1.55-6.092 0-3.367-1.55-6.092-1.496-2.726-4.168-4.275-2.672-1.55-5.986-1.55-3.313 0-5.985 1.55t-4.222 4.275q-1.55 2.725-1.55 6.092 0 3.367 1.55 6.092 1.55 2.726 4.222 4.329 2.672 1.55 5.985 1.55z"/>
  </g>
  <g style="line-height:1;font-variant-ligatures:none;text-align:center" font-weight="200" font-size="72" font-family="DirectoW00-BoldItalic" text-anchor="middle" transform="matrix(1, 0, 0, 1, -110.289658, -275.819122)">
    <path style="line-height: 1; font-variant-ligatures: none; text-align: center; fill-rule: nonzero; fill: url(#gradient-0); stroke: rgb(109, 98, 143);" d="M 164.085 371.922 C 163.043 371.922 162.241 372.042 161.68 372.283 C 161.119 372.523 160.598 373.084 160.117 373.966 L 150.617 391.04 C 150.217 391.842 149.536 392.564 148.574 393.205 C 147.692 393.766 146.81 394.046 145.928 394.046 L 135.468 394.046 C 134.425 394.046 133.744 393.766 133.423 393.205 C 133.103 392.564 133.143 391.842 133.543 391.04 L 172.863 324.067 C 173.985 322.063 174.586 320.059 174.666 318.055 C 174.746 316.051 174.305 314.608 173.343 313.726 C 172.381 312.845 172.181 312.003 172.742 311.201 C 173.383 310.319 174.265 309.878 175.387 309.878 L 196.068 309.878 C 197.03 309.878 197.872 310.199 198.594 310.84 C 199.315 311.401 199.756 312.123 199.916 313.005 L 214.946 391.04 C 215.106 391.842 214.906 392.564 214.345 393.205 C 213.864 393.766 213.143 394.046 212.181 394.046 L 201.961 394.046 C 201.079 394.046 200.237 393.766 199.435 393.205 C 198.714 392.564 198.273 391.842 198.113 391.04 L 195.107 373.966 C 194.947 373.085 194.586 372.524 194.024 372.283 C 193.543 372.043 192.822 371.923 191.86 371.923 Z M 189.335 358.215 C 191.5 358.215 192.381 357.173 191.98 355.089 L 188.854 336.572 L 188.133 326.232 C 188.133 325.51 187.812 325.149 187.171 325.149 C 186.53 325.149 186.049 325.51 185.728 326.231 L 180.918 336.571 L 170.578 355.089 C 169.455 357.173 169.896 358.215 171.9 358.215 Z M 293.209 341.983 C 290.002 341.983 287.358 342.945 285.273 344.868 C 283.189 346.712 281.947 348.876 281.546 351.361 L 273.73 391.041 C 273.57 391.842 273.129 392.564 272.408 393.205 C 271.687 393.766 270.885 394.046 270.003 394.046 L 261.586 394.046 C 260.785 394.046 260.103 393.766 259.542 393.205 C 259.061 392.564 258.901 391.842 259.062 391.04 L 266.997 350.64 C 267.398 348.235 266.877 346.191 265.434 344.508 C 264.071 342.825 262.107 341.983 259.542 341.983 C 256.335 341.983 253.69 342.945 251.606 344.868 C 249.602 346.792 248.4 348.956 247.999 351.361 L 240.183 391.041 C 240.023 391.842 239.582 392.564 238.861 393.205 C 238.14 393.766 237.338 394.046 236.456 394.046 L 228.039 394.046 C 227.238 394.046 226.556 393.766 225.995 393.205 C 225.514 392.564 225.354 391.842 225.515 391.04 L 234.893 342.824 C 235.294 340.74 235.254 339.057 234.773 337.774 C 234.372 336.491 233.61 335.489 232.488 334.768 C 231.927 334.448 231.566 334.047 231.406 333.566 C 231.326 333.085 231.366 332.684 231.526 332.363 C 231.766 331.963 232.087 331.642 232.488 331.401 C 232.889 331.081 233.37 330.921 233.931 330.921 L 246.917 330.921 C 247.798 330.921 248.399 331.081 248.72 331.401 C 249.041 331.642 249.281 331.922 249.442 332.243 C 249.762 332.724 250.043 333.085 250.284 333.325 C 250.524 333.566 251.245 333.325 252.448 332.604 C 254.051 331.642 255.855 330.88 257.858 330.319 C 259.943 329.678 261.907 329.357 263.75 329.357 C 266.395 329.357 268.8 329.758 270.965 330.56 C 273.21 331.361 275.174 332.443 276.857 333.806 C 277.738 334.688 278.42 335.209 278.901 335.369 C 279.462 335.449 280.383 335.048 281.666 334.167 C 284.071 332.724 286.556 331.562 289.121 330.68 C 291.686 329.798 294.412 329.357 297.297 329.357 C 300.424 329.357 303.229 329.918 305.714 331.041 C 308.199 332.163 310.243 333.686 311.846 335.61 C 313.449 337.534 314.532 339.778 315.093 342.343 C 315.734 344.908 315.774 347.674 315.213 350.64 L 307.277 391.04 C 307.117 391.842 306.676 392.564 305.955 393.205 C 305.234 393.766 304.432 394.046 303.55 394.046 L 295.133 394.046 C 294.332 394.046 293.65 393.766 293.089 393.205 C 292.608 392.564 292.448 391.842 292.608 391.04 L 300.544 350.64 C 300.945 348.235 300.464 346.191 299.101 344.508 C 297.738 342.825 295.775 341.983 293.21 341.983 Z M 355.909 382.984 C 358.634 382.984 361.32 382.463 363.965 381.421 C 366.69 380.299 369.135 378.816 371.3 376.972 C 373.464 375.129 375.307 372.964 376.83 370.479 C 378.353 367.994 379.396 365.349 379.957 362.544 C 380.518 359.658 380.518 356.973 379.957 354.488 C 379.396 352.003 378.394 349.838 376.951 347.995 C 375.508 346.151 373.664 344.708 371.42 343.665 C 369.175 342.544 366.69 341.983 363.965 341.983 C 361.24 341.983 358.554 342.544 355.909 343.666 C 353.264 344.708 350.859 346.151 348.694 347.995 C 346.53 349.838 344.647 352.003 343.044 354.488 C 341.521 356.973 340.478 359.658 339.917 362.544 C 339.356 365.349 339.356 367.994 339.917 370.479 C 340.558 372.964 341.6 375.129 343.043 376.972 C 344.486 378.816 346.289 380.299 348.453 381.422 C 350.698 382.463 353.184 382.984 355.909 382.984 Z M 366.37 329.237 C 371.1 329.237 375.388 330.119 379.235 331.882 C 383.163 333.646 386.37 336.051 388.855 339.097 C 391.42 342.063 393.223 345.59 394.265 349.677 C 395.307 353.686 395.387 357.975 394.505 362.544 C 393.624 367.113 391.86 371.401 389.215 375.409 C 386.65 379.417 383.484 382.944 379.716 385.99 C 376.029 388.957 371.901 391.322 367.332 393.085 C 362.843 394.848 358.233 395.73 353.504 395.73 C 348.695 395.73 344.366 394.848 340.518 393.085 C 336.671 391.321 333.464 388.956 330.898 385.99 C 328.413 382.944 326.65 379.417 325.608 375.41 C 324.566 371.401 324.486 367.113 325.368 362.544 C 326.249 357.975 327.973 353.686 330.538 349.678 C 333.183 345.59 336.35 342.063 340.038 339.097 C 343.725 336.05 347.813 333.645 352.302 331.882 C 356.871 330.119 361.559 329.237 366.369 329.237 Z M 423.536 330.92 C 424.578 330.92 425.259 331.121 425.58 331.522 C 425.981 331.922 426.222 332.363 426.302 332.844 C 426.462 333.485 426.702 333.886 427.023 334.047 C 427.424 334.207 428.065 333.966 428.947 333.325 C 429.428 333.005 430.11 332.604 430.991 332.123 C 431.873 331.642 432.835 331.201 433.877 330.8 C 434.999 330.399 436.121 330.079 437.244 329.838 C 438.366 329.518 439.368 329.358 440.25 329.358 C 441.773 329.358 443.215 329.518 444.578 329.838 C 445.941 330.159 447.143 330.64 448.185 331.281 C 448.907 331.762 449.348 332.364 449.508 333.085 C 449.668 333.806 449.428 334.568 448.787 335.369 L 444.458 341.261 C 443.175 343.024 441.612 343.545 439.768 342.824 C 439.288 342.664 438.647 342.504 437.845 342.344 C 437.043 342.103 436.281 341.983 435.56 341.983 C 433.717 341.983 431.993 342.424 430.39 343.305 C 428.867 344.107 427.624 344.949 426.663 345.83 C 425.781 346.712 425.14 347.594 424.739 348.476 C 424.338 349.357 424.017 350.359 423.777 351.482 L 416.081 391.04 C 415.921 391.922 415.48 392.644 414.759 393.205 C 414.038 393.766 413.316 394.046 412.594 394.046 L 403.937 394.046 C 403.136 394.046 402.454 393.766 401.893 393.205 C 401.412 392.564 401.252 391.842 401.413 391.04 L 410.791 342.824 C 411.192 340.74 411.152 339.057 410.671 337.774 C 410.27 336.491 409.508 335.489 408.386 334.768 C 407.825 334.448 407.464 334.047 407.304 333.566 C 407.224 333.085 407.264 332.684 407.424 332.363 C 407.664 331.963 407.985 331.642 408.386 331.401 C 408.787 331.081 409.268 330.921 409.829 330.921 Z M 472.384 330.92 C 473.426 330.92 474.107 331.121 474.428 331.522 C 474.829 331.922 475.069 332.363 475.149 332.844 C 475.309 333.485 475.55 333.886 475.871 334.047 C 476.271 334.207 476.912 333.966 477.795 333.325 C 478.276 333.005 478.957 332.604 479.839 332.123 C 480.72 331.642 481.682 331.201 482.724 330.8 C 483.847 330.399 484.969 330.079 486.091 329.838 C 487.213 329.518 488.215 329.358 489.097 329.358 C 490.62 329.358 492.063 329.518 493.426 329.838 C 494.789 330.159 495.991 330.64 497.033 331.281 C 497.754 331.762 498.195 332.364 498.356 333.085 C 498.516 333.806 498.275 334.568 497.634 335.369 L 493.306 341.261 C 492.023 343.024 490.46 343.545 488.616 342.824 C 488.135 342.664 487.494 342.504 486.692 342.344 C 485.891 342.103 485.129 341.983 484.408 341.983 C 482.564 341.983 480.841 342.424 479.238 343.305 C 477.715 344.107 476.472 344.949 475.51 345.83 C 474.628 346.712 473.987 347.594 473.586 348.476 C 473.185 349.357 472.865 350.359 472.624 351.482 L 464.929 391.04 C 464.769 391.922 464.328 392.644 463.606 393.205 C 462.885 393.766 462.163 394.046 461.442 394.046 L 452.785 394.046 C 451.983 394.046 451.302 393.766 450.741 393.205 C 450.26 392.564 450.099 391.842 450.26 391.04 L 459.638 342.824 C 460.039 340.74 459.999 339.057 459.518 337.774 C 459.117 336.491 458.356 335.489 457.234 334.768 C 456.673 334.448 456.312 334.047 456.151 333.566 C 456.071 333.085 456.111 332.684 456.271 332.363 C 456.512 331.963 456.833 331.642 457.234 331.401 C 457.634 331.081 458.115 330.921 458.676 330.921 Z M 546.857 351.962 C 547.098 350.279 546.898 348.796 546.257 347.514 C 545.294 345.67 543.611 344.307 541.207 343.425 C 538.882 342.464 536.517 341.983 534.112 341.983 C 531.226 341.983 528.46 342.544 525.815 343.666 C 523.17 344.708 520.765 346.151 518.601 347.995 C 516.437 349.838 514.593 352.003 513.07 354.488 C 511.547 356.973 510.505 359.658 509.944 362.544 C 509.383 365.349 509.383 367.994 509.944 370.479 C 510.505 372.964 511.507 375.129 512.95 376.972 C 514.393 378.816 516.196 380.299 518.36 381.422 C 520.605 382.463 523.17 382.984 526.056 382.984 C 528.381 382.984 530.906 382.583 533.631 381.782 C 536.356 380.9 538.601 379.537 540.364 377.694 C 541.647 376.331 542.448 374.768 542.769 373.004 Z M 555.154 382.142 C 554.753 384.227 554.753 385.91 555.154 387.192 C 555.635 388.475 556.436 389.478 557.559 390.199 C 558.12 390.6 558.44 391.04 558.521 391.521 C 558.681 391.922 558.681 392.323 558.521 392.724 C 558.361 393.044 558.08 393.365 557.679 393.686 C 557.278 393.926 556.797 394.046 556.236 394.046 L 542.89 394.046 C 541.688 394.046 540.887 393.766 540.486 393.205 C 540.085 392.564 539.964 391.922 540.125 391.281 C 540.205 390.88 540.005 390.6 539.524 390.439 C 539.123 390.279 538.482 390.52 537.6 391.161 C 536.718 391.722 535.636 392.283 534.353 392.844 C 533.071 393.405 531.708 393.886 530.265 394.287 C 528.822 394.688 527.299 395.008 525.696 395.249 C 524.173 395.569 522.69 395.729 521.247 395.729 C 516.598 395.729 512.47 394.848 508.863 393.085 C 505.256 391.321 502.29 388.956 499.965 385.99 C 497.72 382.944 496.157 379.417 495.275 375.41 C 494.474 371.401 494.514 367.113 495.395 362.544 C 496.277 357.975 497.92 353.686 500.325 349.678 C 502.73 345.59 505.656 342.063 509.103 339.097 C 512.63 336.05 516.517 333.645 520.766 331.882 C 525.095 330.119 529.624 329.237 534.353 329.237 C 537.48 329.237 540.325 329.758 542.89 330.8 C 545.455 331.762 547.299 332.684 548.422 333.566 C 548.742 333.806 549.183 333.966 549.744 334.046 C 550.385 334.127 550.786 333.846 550.947 333.205 C 551.187 331.682 552.309 330.92 554.313 330.92 L 562.009 330.92 C 562.89 330.92 563.572 331.241 564.053 331.882 C 564.534 332.443 564.694 333.125 564.533 333.926 Z"/>
  </g>
</svg>