<?xml version="1.0" encoding="utf-8"?>
<svg viewBox="22.92 34.059 431.384 85.852" xmlns="http://www.w3.org/2000/svg">
  <defs>
    <linearGradient id="gradient-0" x1="348.902" x2="348.902" y1="309.878" y2="395.73" gradientUnits="userSpaceOnUse" spreadMethod="pad" gradientTransform="matrix(0.190385, -0.981709, 4.129443, 0.800833, -1166.997135, 418.770883)">
      <stop offset="0" style="stop-color: rgb(109, 98, 143);"/>
      <stop offset="1" style="stop-color: rgb(177, 167, 205);"/>
    </linearGradient>
  </defs>
  <g style="line-height:1;font-variant-ligatures:none;text-align:center" font-weight="200" font-size="72" font-family="DirectoW00-BoldItalic" text-anchor="middle" transform="matrix(1, 0, 0, 1, -110.289658, -275.819122)">
    <path style="line-height: 1; font-variant-ligatures: none; text-align: center; fill-rule: nonzero; fill: url(#gradient-0); stroke: rgb(109, 98, 143);" d="M 164.085 371.922 C 163.043 371.922 162.241 372.042 161.68 372.283 C 161.119 372.523 160.598 373.084 160.117 373.966 L 150.617 391.04 C 150.217 391.842 149.536 392.564 148.574 393.205 C 147.692 393.766 146.81 394.046 145.928 394.046 L 135.468 394.046 C 134.425 394.046 133.744 393.766 133.423 393.205 C 133.103 392.564 133.143 391.842 133.543 391.04 L 172.863 324.067 C 173.985 322.063 174.586 320.059 174.666 318.055 C 174.746 316.051 174.305 314.608 173.343 313.726 C 172.381 312.845 172.181 312.003 172.742 311.201 C 173.383 310.319 174.265 309.878 175.387 309.878 L 196.068 309.878 C 197.03 309.878 197.872 310.199 198.594 310.84 C 199.315 311.401 199.756 312.123 199.916 313.005 L 214.946 391.04 C 215.106 391.842 214.906 392.564 214.345 393.205 C 213.864 393.766 213.143 394.046 212.181 394.046 L 201.961 394.046 C 201.079 394.046 200.237 393.766 199.435 393.205 C 198.714 392.564 198.273 391.842 198.113 391.04 L 195.107 373.966 C 194.947 373.085 194.586 372.524 194.024 372.283 C 193.543 372.043 192.822 371.923 191.86 371.923 Z M 189.335 358.215 C 191.5 358.215 192.381 357.173 191.98 355.089 L 188.854 336.572 L 188.133 326.232 C 188.133 325.51 187.812 325.149 187.171 325.149 C 186.53 325.149 186.049 325.51 185.728 326.231 L 180.918 336.571 L 170.578 355.089 C 169.455 357.173 169.896 358.215 171.9 358.215 Z M 293.209 341.983 C 290.002 341.983 287.358 342.945 285.273 344.868 C 283.189 346.712 281.947 348.876 281.546 351.361 L 273.73 391.041 C 273.57 391.842 273.129 392.564 272.408 393.205 C 271.687 393.766 270.885 394.046 270.003 394.046 L 261.586 394.046 C 260.785 394.046 260.103 393.766 259.542 393.205 C 259.061 392.564 258.901 391.842 259.062 391.04 L 266.997 350.64 C 267.398 348.235 266.877 346.191 265.434 344.508 C 264.071 342.825 262.107 341.983 259.542 341.983 C 256.335 341.983 253.69 342.945 251.606 344.868 C 249.602 346.792 248.4 348.956 247.999 351.361 L 240.183 391.041 C 240.023 391.842 239.582 392.564 238.861 393.205 C 238.14 393.766 237.338 394.046 236.456 394.046 L 228.039 394.046 C 227.238 394.046 226.556 393.766 225.995 393.205 C 225.514 392.564 225.354 391.842 225.515 391.04 L 234.893 342.824 C 235.294 340.74 235.254 339.057 234.773 337.774 C 234.372 336.491 233.61 335.489 232.488 334.768 C 231.927 334.448 231.566 334.047 231.406 333.566 C 231.326 333.085 231.366 332.684 231.526 332.363 C 231.766 331.963 232.087 331.642 232.488 331.401 C 232.889 331.081 233.37 330.921 233.931 330.921 L 246.917 330.921 C 247.798 330.921 248.399 331.081 248.72 331.401 C 249.041 331.642 249.281 331.922 249.442 332.243 C 249.762 332.724 250.043 333.085 250.284 333.325 C 250.524 333.566 251.245 333.325 252.448 332.604 C 254.051 331.642 255.855 330.88 257.858 330.319 C 259.943 329.678 261.907 329.357 263.75 329.357 C 266.395 329.357 268.8 329.758 270.965 330.56 C 273.21 331.361 275.174 332.443 276.857 333.806 C 277.738 334.688 278.42 335.209 278.901 335.369 C 279.462 335.449 280.383 335.048 281.666 334.167 C 284.071 332.724 286.556 331.562 289.121 330.68 C 291.686 329.798 294.412 329.357 297.297 329.357 C 300.424 329.357 303.229 329.918 305.714 331.041 C 308.199 332.163 310.243 333.686 311.846 335.61 C 313.449 337.534 314.532 339.778 315.093 342.343 C 315.734 344.908 315.774 347.674 315.213 350.64 L 307.277 391.04 C 307.117 391.842 306.676 392.564 305.955 393.205 C 305.234 393.766 304.432 394.046 303.55 394.046 L 295.133 394.046 C 294.332 394.046 293.65 393.766 293.089 393.205 C 292.608 392.564 292.448 391.842 292.608 391.04 L 300.544 350.64 C 300.945 348.235 300.464 346.191 299.101 344.508 C 297.738 342.825 295.775 341.983 293.21 341.983 Z M 355.909 382.984 C 358.634 382.984 361.32 382.463 363.965 381.421 C 366.69 380.299 369.135 378.816 371.3 376.972 C 373.464 375.129 375.307 372.964 376.83 370.479 C 378.353 367.994 379.396 365.349 379.957 362.544 C 380.518 359.658 380.518 356.973 379.957 354.488 C 379.396 352.003 378.394 349.838 376.951 347.995 C 375.508 346.151 373.664 344.708 371.42 343.665 C 369.175 342.544 366.69 341.983 363.965 341.983 C 361.24 341.983 358.554 342.544 355.909 343.666 C 353.264 344.708 350.859 346.151 348.694 347.995 C 346.53 349.838 344.647 352.003 343.044 354.488 C 341.521 356.973 340.478 359.658 339.917 362.544 C 339.356 365.349 339.356 367.994 339.917 370.479 C 340.558 372.964 341.6 375.129 343.043 376.972 C 344.486 378.816 346.289 380.299 348.453 381.422 C 350.698 382.463 353.184 382.984 355.909 382.984 Z M 366.37 329.237 C 371.1 329.237 375.388 330.119 379.235 331.882 C 383.163 333.646 386.37 336.051 388.855 339.097 C 391.42 342.063 393.223 345.59 394.265 349.677 C 395.307 353.686 395.387 357.975 394.505 362.544 C 393.624 367.113 391.86 371.401 389.215 375.409 C 386.65 379.417 383.484 382.944 379.716 385.99 C 376.029 388.957 371.901 391.322 367.332 393.085 C 362.843 394.848 358.233 395.73 353.504 395.73 C 348.695 395.73 344.366 394.848 340.518 393.085 C 336.671 391.321 333.464 388.956 330.898 385.99 C 328.413 382.944 326.65 379.417 325.608 375.41 C 324.566 371.401 324.486 367.113 325.368 362.544 C 326.249 357.975 327.973 353.686 330.538 349.678 C 333.183 345.59 336.35 342.063 340.038 339.097 C 343.725 336.05 347.813 333.645 352.302 331.882 C 356.871 330.119 361.559 329.237 366.369 329.237 Z M 423.536 330.92 C 424.578 330.92 425.259 331.121 425.58 331.522 C 425.981 331.922 426.222 332.363 426.302 332.844 C 426.462 333.485 426.702 333.886 427.023 334.047 C 427.424 334.207 428.065 333.966 428.947 333.325 C 429.428 333.005 430.11 332.604 430.991 332.123 C 431.873 331.642 432.835 331.201 433.877 330.8 C 434.999 330.399 436.121 330.079 437.244 329.838 C 438.366 329.518 439.368 329.358 440.25 329.358 C 441.773 329.358 443.215 329.518 444.578 329.838 C 445.941 330.159 447.143 330.64 448.185 331.281 C 448.907 331.762 449.348 332.364 449.508 333.085 C 449.668 333.806 449.428 334.568 448.787 335.369 L 444.458 341.261 C 443.175 343.024 441.612 343.545 439.768 342.824 C 439.288 342.664 438.647 342.504 437.845 342.344 C 437.043 342.103 436.281 341.983 435.56 341.983 C 433.717 341.983 431.993 342.424 430.39 343.305 C 428.867 344.107 427.624 344.949 426.663 345.83 C 425.781 346.712 425.14 347.594 424.739 348.476 C 424.338 349.357 424.017 350.359 423.777 351.482 L 416.081 391.04 C 415.921 391.922 415.48 392.644 414.759 393.205 C 414.038 393.766 413.316 394.046 412.594 394.046 L 403.937 394.046 C 403.136 394.046 402.454 393.766 401.893 393.205 C 401.412 392.564 401.252 391.842 401.413 391.04 L 410.791 342.824 C 411.192 340.74 411.152 339.057 410.671 337.774 C 410.27 336.491 409.508 335.489 408.386 334.768 C 407.825 334.448 407.464 334.047 407.304 333.566 C 407.224 333.085 407.264 332.684 407.424 332.363 C 407.664 331.963 407.985 331.642 408.386 331.401 C 408.787 331.081 409.268 330.921 409.829 330.921 Z M 472.384 330.92 C 473.426 330.92 474.107 331.121 474.428 331.522 C 474.829 331.922 475.069 332.363 475.149 332.844 C 475.309 333.485 475.55 333.886 475.871 334.047 C 476.271 334.207 476.912 333.966 477.795 333.325 C 478.276 333.005 478.957 332.604 479.839 332.123 C 480.72 331.642 481.682 331.201 482.724 330.8 C 483.847 330.399 484.969 330.079 486.091 329.838 C 487.213 329.518 488.215 329.358 489.097 329.358 C 490.62 329.358 492.063 329.518 493.426 329.838 C 494.789 330.159 495.991 330.64 497.033 331.281 C 497.754 331.762 498.195 332.364 498.356 333.085 C 498.516 333.806 498.275 334.568 497.634 335.369 L 493.306 341.261 C 492.023 343.024 490.46 343.545 488.616 342.824 C 488.135 342.664 487.494 342.504 486.692 342.344 C 485.891 342.103 485.129 341.983 484.408 341.983 C 482.564 341.983 480.841 342.424 479.238 343.305 C 477.715 344.107 476.472 344.949 475.51 345.83 C 474.628 346.712 473.987 347.594 473.586 348.476 C 473.185 349.357 472.865 350.359 472.624 351.482 L 464.929 391.04 C 464.769 391.922 464.328 392.644 463.606 393.205 C 462.885 393.766 462.163 394.046 461.442 394.046 L 452.785 394.046 C 451.983 394.046 451.302 393.766 450.741 393.205 C 450.26 392.564 450.099 391.842 450.26 391.04 L 459.638 342.824 C 460.039 340.74 459.999 339.057 459.518 337.774 C 459.117 336.491 458.356 335.489 457.234 334.768 C 456.673 334.448 456.312 334.047 456.151 333.566 C 456.071 333.085 456.111 332.684 456.271 332.363 C 456.512 331.963 456.833 331.642 457.234 331.401 C 457.634 331.081 458.115 330.921 458.676 330.921 Z M 546.857 351.962 C 547.098 350.279 546.898 348.796 546.257 347.514 C 545.294 345.67 543.611 344.307 541.207 343.425 C 538.882 342.464 536.517 341.983 534.112 341.983 C 531.226 341.983 528.46 342.544 525.815 343.666 C 523.17 344.708 520.765 346.151 518.601 347.995 C 516.437 349.838 514.593 352.003 513.07 354.488 C 511.547 356.973 510.505 359.658 509.944 362.544 C 509.383 365.349 509.383 367.994 509.944 370.479 C 510.505 372.964 511.507 375.129 512.95 376.972 C 514.393 378.816 516.196 380.299 518.36 381.422 C 520.605 382.463 523.17 382.984 526.056 382.984 C 528.381 382.984 530.906 382.583 533.631 381.782 C 536.356 380.9 538.601 379.537 540.364 377.694 C 541.647 376.331 542.448 374.768 542.769 373.004 Z M 555.154 382.142 C 554.753 384.227 554.753 385.91 555.154 387.192 C 555.635 388.475 556.436 389.478 557.559 390.199 C 558.12 390.6 558.44 391.04 558.521 391.521 C 558.681 391.922 558.681 392.323 558.521 392.724 C 558.361 393.044 558.08 393.365 557.679 393.686 C 557.278 393.926 556.797 394.046 556.236 394.046 L 542.89 394.046 C 541.688 394.046 540.887 393.766 540.486 393.205 C 540.085 392.564 539.964 391.922 540.125 391.281 C 540.205 390.88 540.005 390.6 539.524 390.439 C 539.123 390.279 538.482 390.52 537.6 391.161 C 536.718 391.722 535.636 392.283 534.353 392.844 C 533.071 393.405 531.708 393.886 530.265 394.287 C 528.822 394.688 527.299 395.008 525.696 395.249 C 524.173 395.569 522.69 395.729 521.247 395.729 C 516.598 395.729 512.47 394.848 508.863 393.085 C 505.256 391.321 502.29 388.956 499.965 385.99 C 497.72 382.944 496.157 379.417 495.275 375.41 C 494.474 371.401 494.514 367.113 495.395 362.544 C 496.277 357.975 497.92 353.686 500.325 349.678 C 502.73 345.59 505.656 342.063 509.103 339.097 C 512.63 336.05 516.517 333.645 520.766 331.882 C 525.095 330.119 529.624 329.237 534.353 329.237 C 537.48 329.237 540.325 329.758 542.89 330.8 C 545.455 331.762 547.299 332.684 548.422 333.566 C 548.742 333.806 549.183 333.966 549.744 334.046 C 550.385 334.127 550.786 333.846 550.947 333.205 C 551.187 331.682 552.309 330.92 554.313 330.92 L 562.009 330.92 C 562.89 330.92 563.572 331.241 564.053 331.882 C 564.534 332.443 564.694 333.125 564.533 333.926 Z"/>
  </g>
</svg>