<svg fill="currentColor" xmlns="http://www.w3.org/2000/svg" viewBox="0 0 36 36" >
  <path d="M6.39118,14.87224a1.60616,1.60616,0,0,0,2.0023-1.07285q.97636-3.23022,4.59749-3.07491a3.66036,3.66036,0,0,1,1.53751.68882l.00733.0052a5.40659,5.40659,0,0,1,.5114.46071q1.72532,1.89218,2.42891,2.50666A13.853,13.853,0,0,0,19.652,16.076a6.51,6.51,0,0,0,4.41691,1.22379q4.27635-.46242,6.54236-5.53948A1.60626,1.60626,0,1,0,27.677,10.4525q-1.52123,3.41361-3.98691,3.66085c-.04641.00467-.09238.01128-.13825.02a3.65152,3.65152,0,0,1-2.21859-.79451l-.01968-.01191a10.73972,10.73972,0,0,1-1.67089-1.31261l-.0399-.03566q-.561-.48465-2.21655-2.30189l-.00277-.0032q-.02988-.0328-.06162-.064a8.35209,8.35209,0,0,0-.9121-.80005,6.76611,6.76611,0,0,0-3.03151-1.27966l-.00234-.00039c-.04738-.00671-.0948-.01132-.14257-.0138Q7.03347,7.19558,5.31833,12.87A1.60625,1.60625,0,0,0,6.39118,14.87224Z"></path>
  <path d="M29.798,20.78541a1.60637,1.60637,0,0,0-2.121.81331q-1.52123,3.41361-3.98691,3.66085c-.04641.00467-.09238.01127-.13825.02a3.65142,3.65142,0,0,1-2.21859-.7945l-.01968-.01191a10.74033,10.74033,0,0,1-1.67089-1.31261l-.0399-.03567q-.561-.48465-2.21655-2.30188l-.00277-.00321q-.02988-.03279-.06162-.064a8.351,8.351,0,0,0-.9121-.8,6.76613,6.76613,0,0,0-3.03151-1.27967l-.00234-.00038c-.04738-.00671-.0948-.01133-.14257-.0138q-6.19984-.32007-7.915,5.35433a1.60627,1.60627,0,0,0,3.07515.92941q.97636-3.23022,4.59749-3.07491a3.66033,3.66033,0,0,1,1.53751.68881l.00733.0052a5.40713,5.40713,0,0,1,.5114.46072q1.72532,1.89216,2.42891,2.50665A13.85316,13.85316,0,0,0,19.652,27.22217,6.51,6.51,0,0,0,24.06891,28.446q4.27635-.46242,6.54236-5.53948A1.60632,1.60632,0,0,0,29.798,20.78541Z"></path>
</svg>
