<svg xmlns="http://www.w3.org/2000/svg" xmlns:xlink="http://www.w3.org/1999/xlink" viewBox="0 0 100 100" >
  <path fill="currentColor" d="M41.4,65.7v-2.5c4-1.3,7.1-3.4,9.2-6.2c2.2-2.8,3.3-5.7,3.3-8.8c0-0.6-0.1-1.2-0.4-1.7c-0.3-0.5-0.6-0.7-0.9-0.7   c-0.3,0-0.9,0.3-1.9,0.9c-1,0.6-2,0.9-3.1,0.9c-1.9,0-3.3-0.6-4.5-1.7c-1.1-1.1-1.7-2.7-1.7-4.6c0-0.9,0.2-1.8,0.6-2.7   c0.4-0.9,0.9-1.6,1.6-2.2c0.7-0.6,1.4-1.1,2.3-1.5c0.9-0.4,1.9-0.6,2.9-0.6c1.3,0,2.5,0.3,3.6,0.9c1.2,0.6,2.2,1.4,3.1,2.5   c0.9,1.1,1.7,2.4,2.2,3.9c0.5,1.5,0.8,3.2,0.8,5c0,4-1.4,7.7-4.1,11.1C51.8,61,47.4,63.7,41.4,65.7z"></path>
</svg>
