<svg viewBox="0 0 100 100" xmlns="http://www.w3.org/2000/svg" xmlns:xlink="http://www.w3.org/1999/xlink">
	<g style="fill:#000000" transform="translate(50 50) rotate(180) translate(-50 -50)">
		<path d="M94.7,13.3H5.3c-1.6,0-2.8,1.3-2.8,2.8v34c0,1.6,1.3,2.8,2.8,2.8h17V40.9h-5.9c-1.2,0-2.2-1-2.2-2.2V27.7     c0-1.2,1-2.2,2.2-2.2h67.1c1.2,0,2.2,1,2.2,2.2v10.9c0,1.2-1,2.2-2.2,2.2h-5.9v12.2h17c1.6,0,2.8-1.3,2.8-2.8v-34     C97.5,14.6,96.2,13.3,94.7,13.3z"/>
		<path d="M28.5,80.9c0,3.2,2.6,5.8,5.8,5.8h31.5c3.2,0,5.8-2.6,5.8-5.8V31.6h-43V80.9z M40.4,50.3l7.6-7.6c1-1,2.9-1,3.9,0     l7.6,7.6c1.1,1.1,1.1,2.8,0,3.9c-0.5,0.5-1.2,0.8-2,0.8s-1.4-0.3-2-0.8l-2.9-2.9v22.4c0,1.5-1.2,2.8-2.8,2.8s-2.8-1.2-2.8-2.8     V51.3l-2.9,2.9c-1.1,1.1-2.8,1.1-3.9,0S39.3,51.4,40.4,50.3z"/>
	</g>
</svg>