<svg viewBox="0 0 100 100" xmlns="http://www.w3.org/2000/svg" xmlns:xlink="http://www.w3.org/1999/xlink">
<path fill="currentColor" d="M52.205863,40.7768328 C52.2230477,40.3734445 52.2420413,39.9741263 52.2601305,39.5729992 C52.6549264,32.1225264 53.6570658,21.2174762 56.200854,13.898602 C56.2193954,13.8954364 56.238389,13.8918186 56.2573826,13.8882008 C56.4527455,13.8506658 61.9839585,12.5799023 63.4659129,12.2393738 L63.4659129,6.53767056 C62.1815825,6.08996385 57.9025917,5.20178609 57.2378151,5.11360143 C57.132898,5.09958234 57.0288853,5.08737215 56.9248726,5.07606643 C51.4538061,4.4800286 47.3453057,7.4457464 44.4438044,11.9033677 C37.8530189,22.0296795 36.1603257,36.3526765 36.0079246,48.1734904 C35.8822049,57.949777 37.2524588,67.7504839 40.1109983,77.1021275 C42.3422962,84.4001991 46.0930835,94.9932113 55.4175934,94.9999947 C57.212038,95.0013514 61.8469331,94.7431286 63.4659129,93.3633779 L63.4659129,87.94477 C61.9839585,87.6390632 56.4527455,86.4980894 56.2573826,86.4628156 C56.216682,86.4555799 56.1746247,86.447892 56.1339241,86.4406564 C53.8022314,80.3825966 52.9782701,74.0179257 52.7820027,72.2239332 C52.6567353,70.967641 52.5468436,69.6778839 52.4568501,68.3537574 C52.2497292,65.4830077 52.1280796,62.4743281 52.0448695,59.40912 C51.9616593,56.3430073 51.9444746,53.2135826 51.9716084,50.0877758 C52.0028122,46.9619689 52.0810478,43.8366142 52.205863,40.7768328" transform="translate(50.173389, 50.000000) scale(-1, 1) translate(-50.173389, -50.000000) "/>
</svg>
