<svg fill="currentColor" xmlns="http://www.w3.org/2000/svg" xmlns:xlink="http://www.w3.org/1999/xlink" viewBox="0 0 32 32">
  <path d="M16,4c-4.027,0-7.304,3.277-7.304,7.304c0,1.151,0.936,2.087,2.087,2.087c1.151,0,2.087-0.936,2.087-2.087  c0-1.726,1.404-3.13,3.13-3.13c1.727,0,3.13,1.404,3.13,3.13c0,1.409-0.946,2.651-2.304,3.021c-1.715,0.468-2.913,1.943-2.913,3.588  v2.435c0,1.151,0.936,2.088,2.087,2.088c1.15,0,2.087-0.937,2.087-2.088v-2.041c3.081-0.918,5.218-3.771,5.218-7.001  C23.305,7.277,20.027,4,16,4z"></path>
  <circle cx="16" cy="25.913" r="2.087"></circle>
</svg>
