<svg xmlns="http://www.w3.org/2000/svg" xmlns:xlink="http://www.w3.org/1999/xlink" viewBox="0 0 100 100">
  <path fill="currentColor" d="M71.79028,66.50348,50.923,54.52533c-.04663-.02655-.09826-.05359-.1477-.07678a2.00174,2.00174,0,0,0-1.69776,3.62567l21.79,10.20373a1.00089,1.00089,0,0,0,.92273-1.77447Z"></path>
  <path fill="currentColor" d="M76.19,27.81409l2.93915-3.64362,1.46057,1.178a1.12319,1.12319,0,0,0,1.57935-.16907l2.62378-3.25256a1.12311,1.12311,0,0,0-.16907-1.57941l-6.814-5.496a1.12319,1.12319,0,0,0-1.57934.16907l-2.62378,3.25256a1.12311,1.12311,0,0,0,.16907,1.57941l1.46081,1.17828-2.941,3.64588a38.47755,38.47755,0,0,0-19.79553-6.98816V13.41235l5.86255-2.37494a1.02082,1.02082,0,0,0,.6377-.94616V6.02081a1.02085,1.02085,0,0,0-1.02076-1.02087H42.02106a1.02085,1.02085,0,0,0-1.02075,1.02087v4.07044a1.021,1.021,0,0,0,.63745.94616l5.8623,2.37476v4.27637A38.69726,38.69726,0,1,0,76.19,27.81409ZM50,90A33.70026,33.70026,0,1,1,83.70026,56.29974,33.73841,33.73841,0,0,1,50,90Z"></path>
  <path fill="currentColor" d="M50.00031,29.35168v17.73l26.29992,15.09a26.39905,26.39905,0,0,0,.65-5.87A26.98092,26.98092,0,0,0,50.00031,29.35168Z"></path>
</svg>
