<svg xmlns="http://www.w3.org/2000/svg" xmlns:xlink="http://www.w3.org/1999/xlink" viewBox="0 0 100 100">
  <path fill="currentColor" d="M38,85.9L13.9,61.8c-1.1-1.1-1.8-2.6-1.8-4.2c0-1.6,0.6-3.1,1.8-4.2l39.6-39.4c1.1-1.1,2.6-1.8,4.2-1.7l23.9,0    c3.3,0,6,2.7,6,6l0.1,24c0,1.6-0.6,3.1-1.8,4.2L46.4,85.9c-1.1,1.1-2.6,1.8-4.2,1.8C40.6,87.7,39.1,87,38,85.9z M18.1,57.6    L18.1,57.6C18.1,57.6,18.1,57.6,18.1,57.6l24.1,24.1l39.5-39.5l-0.1-24l-23.9,0L18.1,57.6z"></path>
  <path fill="currentColor" d="M60.7,31c0-4.4,3.6-8.1,8.1-8.1s8.1,3.6,8.1,8.1s-3.6,8.1-8.1,8.1S60.7,35.5,60.7,31z M64.7,31c0,2.2,1.8,4.1,4.1,4.1 s4.1-1.8,4.1-4.1S71,27,68.8,27S64.7,28.8,64.7,31z"></path>
</svg>
