<svg viewBox="0 0 100 100" xmlns="http://www.w3.org/2000/svg" xmlns:xlink="http://www.w3.org/1999/xlink">
  <path fill="currentColor" d="M49.99988,24.88379A35.05811,35.05811,0,1,0,85.05847,59.94141,35.097,35.097,0,0,0,49.99988,24.88379Zm0,65.11621A30.05811,30.05811,0,1,1,80.05847,59.94141,30.092,30.092,0,0,1,49.99988,90Z"/>
  <rect fill="currentColor" height="2.2296" transform="translate(-13.7324 42.54432) rotate(-29.98372)" width="5.04158" x="70.04693" y="45.79693"/>
  <rect fill="currentColor" height="2.22963" transform="translate(-0.85456 73.26821) rotate(-59.99579)" width="5.04151" x="60.50949" y="36.25942"/>
  <rect fill="currentColor" height="5.04474" width="2.22986" x="48.88489" y="31.36261"/>
  <rect fill="currentColor" height="2.22986" width="5.0448" x="21.42029" y="58.82721"/>
  <rect fill="currentColor" height="2.22957" transform="translate(-32.81565 23.49841) rotate(-30.00557)" width="5.04046" x="24.91205" y="71.85735"/>
  <rect fill="currentColor" height="5.04084" transform="translate(-26.91054 47.22441) rotate(-60.01212)" width="2.2296" x="26.31748" y="44.39131"/>
  <rect fill="currentColor" height="2.22963" transform="translate(-52.97014 73.26749) rotate(-59.99736)" width="5.04051" x="34.44956" y="81.39486"/>
  <rect fill="currentColor" height="5.04112" transform="translate(-13.7284 23.47132) rotate(-29.97651)" width="2.23018" x="35.85473" y="34.85366"/>
  <rect fill="currentColor" height="5.04407" width="2.22986" x="48.88489" y="83.47687"/>
  <rect fill="currentColor" height="5.04088" transform="translate(-32.80193 42.54905) rotate(-29.98788)" width="2.22963" x="61.91543" y="79.98923"/>
  <rect fill="currentColor" height="5.0412" transform="translate(-26.90045 99.37459) rotate(-60.02479)" width="2.23011" x="71.45266" y="70.45154"/>
  <rect fill="currentColor" height="2.22986" width="5.0448" x="73.53455" y="58.82721"/>
  <path fill="currentColor" d="M50.00012,20.20361c1.09058,0,2.18128.04114,3.25147.13379V13.37231l3.80993-1.94555a1.11694,1.11694,0,0,0,.53833-1.00714V6.08667A.994.994,0,0,0,56.73792,5H43.26221a.99412.99412,0,0,0-.86206,1.08667v4.333a1.11679,1.11679,0,0,0,.53845,1.00714l3.80981,1.94549V20.3374C47.81848,20.24475,48.9093,20.20361,50.00012,20.20361Z"/>
  <path fill="currentColor" d="M72.44226,53.59174a.37733.37733,0,0,0-.434-.3108l-19.04919,3.1504A4.60688,4.60688,0,1,0,54.365,61.36548L72.21387,54.0022A.37758.37758,0,0,0,72.44226,53.59174Z"/>
  <path fill="currentColor" d="M15.47822,26.89376h7.21719a1.78288,1.78288,0,0,1,1.78288,1.78288V31.595a1.78277,1.78277,0,0,1-1.78277,1.78277H15.47824a1.78274,1.78274,0,0,1-1.78274-1.78274V28.67648a1.78272,1.78272,0,0,1,1.78272-1.78272Z" transform="translate(-15.85464 22.95496) rotate(-46.03819)"/>
  <path fill="currentColor" d="M79.45386,24.74439h2.9186a1.78267,1.78267,0,0,1,1.78267,1.78267v7.21739a1.78272,1.78272,0,0,1-1.78272,1.78272H79.45378a1.78269,1.78269,0,0,1-1.78269-1.78269V26.52716a1.78277,1.78277,0,0,1,1.78277-1.78277Z" transform="translate(1.7501 64.60772) rotate(-43.95862)"/>
</svg>
