<svg fill="currentColor" xmlns="http://www.w3.org/2000/svg" xmlns:xlink="http://www.w3.org/1999/xlink" version="1.0" viewBox="10 20 80 60" xml:space="preserve"><path d="M63.333,23.333c-4.863,0-9.407,1.322-13.333,3.598c-3.926-2.275-8.47-3.598-13.333-3.598C21.94,23.333,10,35.273,10,50  c0,14.729,11.94,26.667,26.667,26.667c4.863,0,9.407-1.322,13.333-3.598c3.926,2.275,8.47,3.598,13.333,3.598  C78.063,76.667,90,64.729,90,50C90,35.273,78.063,23.333,63.333,23.333z M36.667,70c-11.029,0-20-8.972-20-20s8.971-20,20-20  c2.656,0,5.188,0.53,7.51,1.475C39.538,36.276,36.667,42.8,36.667,50c0,7.204,2.867,13.728,7.51,18.525  C41.855,69.47,39.323,70,36.667,70z M50,64.866c-4.082-3.665-6.667-8.961-6.667-14.866S45.918,38.799,50,35.134  c4.082,3.665,6.667,8.961,6.667,14.866S54.082,61.201,50,64.866z M63.333,70c-2.656,0-5.188-0.53-7.506-1.475  c4.639-4.798,7.506-11.321,7.506-18.525c0-7.2-2.867-13.728-7.51-18.525C58.145,30.53,60.677,30,63.333,30c11.029,0,20,8.972,20,20  S74.362,70,63.333,70z"></path></svg>
