<svg fill="currentColor" viewBox="0 0 44 44" xmlns="http://www.w3.org/2000/svg" xmlns:xlink="http://www.w3.org/1999/xlink">
  <g transform="matrix(1,0,0,1,-120,-480)">
    <path d="M139,513L133,513L133,519L139,519L139,513ZM141,518L158,518L158,514L141,514L141,518ZM129,515L131,515L131,517L129,517L128.988,517C127.992,516.992 127,515.996 127,515L127,495L129,495L129,497L131,497L131,499L129,499L129,506L131,506L131,508L129,508L129,515ZM139,504L133,504L133,510L139,510L139,504ZM141,509L158,509L158,505L141,505L141,509ZM139,495L133,495L133,501L139,501L139,495ZM141,500L158,500L158,496L141,496L141,500ZM131,487.5C131,486.672 130.328,486 129.5,486L126.5,486C125.672,486 125,486.672 125,487.5L125,490.5C125,491.328 125.672,492 126.5,492L129.5,492C130.328,492 131,491.328 131,490.5L131,487.5Z"/>
  </g>
</svg>
