<svg fill="currentColor" xmlns:x="http://ns.adobe.com/Extensibility/1.0/" xmlns="http://www.w3.org/2000/svg" xmlns:xlink="http://www.w3.org/1999/xlink" version="1.1" viewBox="0 0 100 100" ><path d="M94.7,13.3H5.3c-1.6,0-2.8,1.3-2.8,2.8v34c0,1.6,1.3,2.8,2.8,2.8h17V40.9h-5.9c-1.2,0-2.2-1-2.2-2.2V27.7     c0-1.2,1-2.2,2.2-2.2h67.1c1.2,0,2.2,1,2.2,2.2v10.9c0,1.2-1,2.2-2.2,2.2h-5.9v12.2h17c1.6,0,2.8-1.3,2.8-2.8v-34     C97.5,14.6,96.2,13.3,94.7,13.3z"></path><path d="M28.5,80.9c0,3.2,2.6,5.8,5.8,5.8h31.5c3.2,0,5.8-2.6,5.8-5.8V31.6h-43V80.9z M40.4,64.1c1.1-1.1,2.8-1.1,3.9,0l2.9,2.9     V44.6c0-1.5,1.2-2.8,2.8-2.8s2.8,1.2,2.8,2.8V67l2.9-2.9c1.1-1.1,2.8-1.1,3.9,0c1.1,1.1,1.1,2.8,0,3.9L52,75.6     c-0.5,0.5-1.2,0.8-2,0.8s-1.4-0.3-2-0.8L40.4,68C39.3,66.9,39.3,65.1,40.4,64.1z"></path></svg>